<svg width="42" height="48" viewBox="0 0 42 48" xmlns="http://www.w3.org/2000/svg" xmlns:xlink="http://www.w3.org/1999/xlink"><title>paper-bag</title><desc>Created using Figma</desc><use xlink:href="#a" fill="#4F4F4F"/><defs><path id="a" d="M38.994 13.365A1.5 1.5 0 0 0 37.5 12H30V9c0-4.963-4.035-9-9-9-4.963 0-9 4.037-9 9v3H4.5a1.5 1.5 0 0 0-1.494 1.365l-3 33c-.038.418.102.835.387 1.146.283.312.685.489 1.107.489h39a1.505 1.505 0 0 0 1.494-1.635l-3-33zM15 9c0-3.309 2.692-6 6-6s6 2.691 6 6v3H15V9zM3.144 45L5.87 15H12v3.416A2.988 2.988 0 0 0 10.5 21a3.001 3.001 0 0 0 6 0 2.988 2.988 0 0 0-1.5-2.584V15h12v3.416A2.986 2.986 0 0 0 25.5 21a3.001 3.001 0 0 0 6 0 2.985 2.985 0 0 0-1.5-2.584V15h6.13l2.726 30H3.144z"/></defs></svg>