<svg width="42" height="48" viewBox="0 0 42 48" version="1.1" xmlns="http://www.w3.org/2000/svg" xmlns:xlink="http://www.w3.org/1999/xlink">
<title>paper-bag</title>
<desc>Created using Figma</desc>
<g id="Canvas" transform="translate(-1435 449)">
<g id="paper-bag">
<g id="Group">
<g id="Bag">
<g id="Group">
<g id="Vector">
<use xlink:href="#path0_fill" transform="translate(1435 -449)" fill="#4F4F4F"/>
</g>
</g>
</g>
</g>
</g>
</g>
<defs>
<path id="path0_fill" d="M 38.9941 13.365C 38.9236 12.5925 38.2786 12 37.5001 12L 30.0001 12L 30.0001 9C 30.0001 4.0365 25.9651 0 21 0C 16.0365 0 12 4.0365 12 9L 12 12L 4.50001 12C 3.72301 12 3.0765 12.5925 3.006 13.365L 0.00599661 46.365C -0.0315035 46.7835 0.107997 47.2005 0.392998 47.511C 0.676498 47.823 1.0785 48 1.5 48L 40.5001 48C 40.9216 48 41.3236 47.823 41.6071 47.511C 41.8891 47.2005 42.0316 46.785 41.9941 46.365L 38.9941 13.365ZM 15 9C 15 5.691 17.6925 3 21 3C 24.3076 3 27.0001 5.691 27.0001 9L 27.0001 12L 15 12L 15 9ZM 3.144 45L 5.86951 15L 12 15L 12 18.4155C 11.106 18.936 10.5 19.893 10.5 21C 10.5 22.656 11.844 24 13.5 24C 15.156 24 16.5 22.656 16.5 21C 16.5 19.893 15.894 18.936 15 18.4155L 15 15L 27.0001 15L 27.0001 18.4155C 26.1061 18.936 25.5001 19.8915 25.5001 21C 25.5001 22.656 26.8441 24 28.5001 24C 30.1561 24 31.5001 22.656 31.5001 21C 31.5001 19.893 30.8956 18.936 30.0001 18.4155L 30.0001 15L 36.1306 15L 38.8561 45L 3.144 45Z"/>
</defs>
</svg>
