<svg width="45" height="45" viewBox="0 0 45 45" version="1.1" xmlns="http://www.w3.org/2000/svg" xmlns:xlink="http://www.w3.org/1999/xlink">
<title>search-icon</title>
<desc>Created using Figma</desc>
<g id="Canvas" transform="translate(141 132)">
<g id="search-icon">
<g id="Group">
<g id="x34  4">
<g id="Group">
<g id="Vector">
<use xlink:href="#path0_fill" transform="translate(-141 -132)" fill="#4F4F4F"/>
</g>
</g>
</g>
</g>
</g>
</g>
<defs>
<path id="path0_fill" d="M 44.5739 42.5527L 32.9554 31.1198C 35.9979 27.8142 37.8674 23.4425 37.8674 18.6319C 37.8659 8.34114 29.3897 0 18.9329 0C 8.47621 0 3.83487e-12 8.34114 3.83487e-12 18.6319C 3.83487e-12 28.9227 8.47621 37.2638 18.9329 37.2638C 23.451 37.2638 27.5948 35.7011 30.8498 33.1031L 42.5133 44.581C 43.0816 45.1408 44.0043 45.1408 44.5726 44.581C 45.1422 44.0212 45.1422 43.1125 44.5739 42.5527ZM 18.9329 34.3972C 10.0854 34.3972 2.9131 27.3389 2.9131 18.6319C 2.9131 9.92497 10.0854 2.86663 18.9329 2.86663C 27.7806 2.86663 34.9528 9.92497 34.9528 18.6319C 34.9528 27.3389 27.7806 34.3972 18.9329 34.3972Z"/>
</defs>
</svg>
